<svg width="24" height="24" viewBox="0 0 24 24" fill="none" xmlns="http://www.w3.org/2000/svg">
<path fill-rule="evenodd" clip-rule="evenodd" d="M13.6592 4.41662L3.96867 13.9157C3.43127 14.4425 3.12036 15.1526 3.10043 15.8975L3.00021 19.8383C2.99098 20.201 3.28841 20.4999 3.65854 20.4999H7.64282C8.43007 20.4999 9.1843 20.1939 9.74061 19.6486L19.4694 10.112C20.7162 8.88985 20.7162 6.90755 19.4694 5.6854L18.175 4.41662C16.9283 3.19446 14.906 3.19446 13.6592 4.41662ZM17.2437 5.32953L18.5381 6.59831C19.2705 7.31628 19.2705 8.48112 18.5381 9.19909L17.7862 9.93612L13.8382 6.06697L14.5905 5.32953C15.323 4.61156 16.5113 4.61156 17.2437 5.32953ZM12.9069 6.97989L4.89998 14.8287C4.60126 15.1215 4.42814 15.5169 4.41707 15.9305L4.33345 19.2084L7.64282 19.2088C8.03222 19.2088 8.4067 19.0745 8.70228 18.8317L8.8093 18.7357L16.8549 10.849L12.9069 6.97989Z" fill="#F07320"/>
</svg>
